PathFileType	4	(X/Y/Z)	TYPE-2_1685523821198
DataRate	CameraRate	NumFrames	NumMarkers	Units	OrigDataRate	OrigDataStartFrame	OrigNumFrames
60.00	60.00	       24	13	mm  	60.00	29	       199
Frame#	Time	H			R			B			RF			RK			RB			RA			RD			LF			LK			LB			LA			LD			
		X1	Y1	Z1	X2	Y2	Z2	X3	Y3	Z3	X4	Y4	Z4	X5	Y5	Z5	X6	Y6	Z6	X7	Y7	Z7	X8	Y8	Z8	X9	Y9	Z9	X10	Y10	Z10	X11	Y11	Z11	X12	Y12	Z12	X13	Y13	Z13	
29	0.466667	-927.402438	871.848380	-173.502165	-715.195944	879.856172	-56.888691	-723.370565	861.671810	-307.132198	-718.198866	552.537664	29.361905	-654.136528	443.431495	-34.199946	-722.369591	151.814394	-30.863366	-729.376409	63.561851	-90.921808	-632.782416	69.567695	-100.597890	-786.431929	504.824569	-407.396430	-778.257308	414.403248	-361.184796	-1051.356389	307.132198	-356.346754	0.000000	0.000000	0.000000	-1076.380740	156.485607	-283.942966	
30	0.483333	-904.713693	878.187882	-172.334362	-692.840857	884.861042	-55.387230	-701.015479	866.676680	-305.463908	-707.188152	555.040099	31.030195	-648.297513	442.430521	-32.865314	-722.202762	151.647565	-30.696537	-729.876896	65.063312	-90.254492	-632.782416	69.567695	-100.097403	-742.722730	511.664558	-409.231549	-729.376409	421.910553	-362.018941	-996.302817	301.626841	-358.348702	0.000000	0.000000	0.000000	-1011.317428	152.481710	-288.614178	
31	0.500000	-882.024949	885.194700	-171.333388	-671.653574	889.365425	-53.385282	-677.993076	871.181064	-303.628789	-696.844753	557.042047	31.697511	-643.125814	441.930034	-31.697511	-721.869104	151.647565	-30.529708	-729.710067	65.063312	-90.254492	-633.116074	69.234037	-99.430087	-701.849624	519.005034	-406.895943	-681.162827	430.752491	-362.018941	-941.249246	293.785878	-358.849190	0.000000	0.000000	0.000000	-943.751681	146.309037	-292.618075	
32	0.516667	-859.669862	888.531280	-172.668020	-651.800922	892.368347	-50.882846	-654.303357	875.852276	-301.626841	-686.835013	558.710337	32.698485	-637.787286	441.262718	-30.529708	-721.869104	152.148052	-30.529708	-729.376409	65.063312	-90.421321	-633.282903	69.234037	-99.096429	-660.476030	527.346484	-405.561311	-635.618509	438.426625	-359.349677	-885.528358	283.275650	-357.681386	-943.918510	225.385986	-304.796592	-873.516670	138.134416	-289.114665	
33	0.533333	-837.648434	892.201518	-173.502165	-633.116074	895.204440	-47.879924	-630.947296	879.522514	-298.123432	-676.825273	560.378627	33.365801	-632.949245	441.095889	-30.696537	-721.869104	152.815368	-30.696537	-729.209580	65.063312	-91.255466	-632.949245	69.234037	-99.096429	-620.937556	535.020619	-404.393508	-591.241993	447.769049	-355.512609	-827.972351	269.762501	-356.847241	-880.857146	206.867966	-308.633659	-801.279710	130.126624	-289.615152	
34	0.550000	-815.627005	894.870782	-174.336310	-613.263422	897.873704	-44.376515	-607.924894	882.859094	-293.785878	-666.481875	561.880088	33.198972	-627.944374	440.428573	-31.864340	-721.702275	153.649513	-31.530682	-729.876896	66.397944	-92.256440	-632.615587	69.234037	-99.430087	-583.067372	541.360121	-403.058876	-547.199136	456.777815	-357.514557	-768.748055	254.414232	-356.680412	-814.459202	185.180195	-306.798540	-725.205684	121.284687	-290.449298	
35	0.566667	-793.438747	896.205414	-175.504113	-593.243941	900.042481	-40.539448	-584.235175	885.695187	-290.115639	-655.971647	562.881062	32.865314	-622.439017	439.928086	-32.698485	-721.368617	154.817317	-32.698485	-728.709093	65.230141	-92.756927	-632.115100	69.234037	-99.763745	-546.698649	547.032307	-400.556441	-509.328952	463.784634	-353.510661	-707.521810	238.565477	-357.347728	-746.059310	164.493399	-307.299027	-649.632145	111.608604	-290.115639	
36	0.583333	-771.250490	896.539072	-176.505087	-573.891777	900.542968	-36.869210	-560.712285	886.862990	-286.612230	-644.627275	562.547404	32.197998	-616.433173	438.927112	-33.032143	-720.534472	155.818291	-33.365801	-729.376409	66.231115	-94.758875	-631.948270	69.234037	-100.097403	-512.498703	551.703519	-397.219861	-472.626571	470.124136	-350.674568	-644.627275	222.216235	-357.681386	-675.824299	144.640747	-309.467804	-573.558119	102.266180	-290.616127	
37	0.600000	-749.062232	895.704927	-178.173377	-554.372783	899.541994	-33.866288	-537.356225	886.529332	-283.942966	-632.949245	562.046917	31.697511	-610.260500	437.926138	-33.532630	-719.033011	156.318778	-33.699459	-728.375435	65.396970	-93.757901	-632.115100	69.234037	-100.431061	-480.300705	554.873270	-394.216939	-438.259796	474.461690	-347.504817	-581.065424	206.033821	-356.847241	-600.918076	123.787122	-307.799514	-496.816777	95.259362	-291.617101	
38	0.616667	-726.540316	893.869808	-180.175325	-534.686961	897.039559	-32.031169	-513.666506	886.028845	-281.774189	-621.771701	562.881062	32.531656	-604.421485	437.091993	-35.034091	-717.531550	156.819265	-34.199946	-728.208606	65.396970	-93.757901	-632.281929	69.567695	-100.431061	-449.103681	556.374731	-391.047187	-406.895943	476.296809	-343.334092	-517.503573	191.686527	-356.179925	-526.679168	105.936418	-307.299027	-419.908605	91.088637	-291.116614	
39	0.633333	-703.517914	891.367373	-181.509957	-513.666506	894.703953	-30.696537	-489.309471	884.694213	-280.272728	-610.260500	561.880088	30.863366	-598.749299	435.924190	-36.869210	-716.196918	156.986094	-34.533604	-727.708119	65.563799	-93.924730	-632.281929	69.901353	-100.264232	-418.907631	556.374731	-387.877436	-377.534038	475.462664	-338.496051	-454.775867	179.341180	-355.178951	-453.107577	91.255466	-305.297079	-344.668724	88.919860	-292.451246	
40	0.650000	-680.662340	888.197622	-182.010444	-490.810932	892.868834	-30.029221	-464.785608	882.358607	-279.104925	-598.916128	561.546430	30.196050	-592.910283	434.923216	-38.037013	-715.195944	157.486581	-35.034091	-727.708119	66.397944	-95.759849	-632.115100	69.901353	-100.597890	-391.714503	553.705467	-384.540856	-349.673594	472.292913	-333.491181	-394.216939	168.830953	-354.011148	-381.537934	81.412554	-302.794644	-272.431765	88.919860	-295.620997	
41	0.666667	-656.472134	883.192752	-186.514827	-467.454872	889.699083	-30.029221	-439.928086	878.354711	-278.604438	-587.238097	560.211798	29.361905	-587.238097	433.755413	-39.037987	-714.028141	157.820239	-35.367749	-727.708119	67.232089	-93.257414	-632.115100	69.734524	-100.764719	-367.357469	547.365965	-381.204276	-323.314611	466.954385	-328.653140	-335.826787	161.323648	-352.176029	-312.470726	78.075974	-303.295131	-203.197728	91.755953	-297.456116	
42	0.683333	-631.948270	877.186908	-186.014340	-444.599298	884.861042	-30.362879	-414.736906	873.016183	-278.938096	-575.726896	558.209850	28.861418	-581.732740	432.921268	-40.038961	-712.860338	158.487555	-35.367749	-727.207632	67.232089	-95.593020	-632.115100	69.734524	-100.931548	-344.501895	538.357199	-377.867696	-298.790748	459.947566	-324.148756	-279.939070	156.151949	-349.840423	-245.572295	76.908171	-305.130250	-137.300271	98.095455	-297.789774	
43	0.700000	-607.090749	870.847405	-187.182143	-421.410066	879.022027	-30.362879	-389.045239	866.676680	-278.938096	-564.883011	556.708389	28.527760	-575.893725	432.420781	-40.539448	-711.859364	159.154871	-36.702381	-727.708119	68.733550	-94.592046	-632.115100	69.901353	-100.764719	-321.979979	528.180629	-374.697945	-275.267858	452.940748	-319.143886	-227.054276	152.648539	-347.171159	-180.342154	72.403788	-305.463908	-75.573539	107.604708	-296.788800	
44	0.716667	-581.732740	863.840587	-189.684579	-397.553519	871.848380	-30.196050	-363.186744	858.835717	-278.771267	-554.205954	555.540586	28.194102	-568.720078	431.252978	-40.205790	-709.690587	161.323648	-35.534578	-727.541290	70.401840	-94.592046	-631.948270	70.068182	-100.764719	-300.292209	517.336744	-372.195510	-251.744968	444.932956	-318.643399	-177.005574	150.479762	-345.336040	-122.452490	77.408658	-303.628789	-19.518994	118.281764	-295.454168	
45	0.733333	-556.875218	856.500111	-191.686527	-373.863800	864.007416	-30.196050	-336.160445	850.661096	-279.104925	-542.361095	553.538638	28.527760	-560.044969	430.085175	-40.038961	-707.188152	163.826083	-35.701407	-727.708119	74.572565	-93.591072	-631.614612	70.068182	-101.598864	-277.770293	506.659688	-370.360391	-227.721592	436.925164	-315.807306	-129.792966	149.645617	-343.500921	-69.234037	81.412554	-301.293183	30.696537	129.959795	-295.120510	
46	0.750000	-532.184526	849.159635	-193.855304	-350.340910	856.666940	-29.195076	-308.300001	842.986962	-279.104925	-528.180629	551.203032	28.694589	-549.868400	429.251030	-40.539448	-703.517914	165.994860	-35.367749	-725.372513	73.404762	-94.425217	-630.947296	70.401840	-102.266180	-252.745942	496.983606	-368.024785	-202.530412	429.751517	-313.471700	-84.582305	149.979275	-340.998486	-21.520942	84.582305	-298.957577	77.742316	143.139286	-292.784904	
47	0.766667	-507.327004	842.986962	-196.858226	-326.818021	849.993780	-27.693615	-280.105899	835.646485	-277.436635	-512.498703	549.701571	28.527760	-537.523054	427.582740	-40.706277	-699.847675	169.498269	-36.368723	-724.204710	77.575487	-92.423269	-629.612664	71.235985	-100.764719	-224.885499	490.143616	-366.690153	-175.170455	423.912501	-312.971213	-46.044805	149.812446	-337.328248	19.018507	85.750109	-296.121484	114.778355	144.307089	-290.282468	
48	0.783333	-480.133876	837.481605	-201.028951	-302.627815	843.654278	-25.691667	-251.578139	829.306983	-275.601516	-495.148486	548.533768	28.194102	-523.342588	426.414936	-40.706277	-694.509147	175.670942	-34.700433	-721.535446	82.580357	-93.424243	-627.944374	71.903301	-99.596916	-193.688475	487.140694	-367.190640	-144.974405	420.242263	-310.468778	-17.683875	145.308063	-333.491181	52.217479	83.914989	-292.451246	147.810498	142.471970	-286.779059	
49	0.800000	-450.104655	831.475760	-205.866992	-277.937122	837.314776	-24.523864	-223.550867	824.468942	-275.101029	-475.796322	547.032307	28.027273	-507.827491	426.248107	-40.539448	-688.002816	182.510931	-34.033117	-717.698379	91.422295	-91.922782	-625.108281	73.738420	-98.595942	-159.154871	486.640207	-367.190640	-112.442749	418.740802	-306.631711	9.008766	140.970509	-329.820943	78.576461	79.410606	-286.945888	175.170455	135.798810	-282.274676	
50	0.816667	-420.575921	826.637719	-210.538204	-251.744968	831.642589	-24.523864	-195.690423	821.632849	-275.434687	-454.442209	545.530846	28.027273	-489.976787	426.248107	-39.705303	-679.327708	190.018237	-32.364827	-713.360825	100.931548	-89.420347	-622.272188	75.573539	-96.260336	-123.620293	488.141668	-367.691127	-78.409632	418.740802	-307.299027	33.032143	135.798810	-326.150705	99.763745	72.403788	-281.273702	197.859200	125.622241	-278.938096	
51	0.833333	-394.550597	826.137232	-210.371375	-223.550867	827.138206	-24.523864	-166.662176	819.964559	-275.434687	-431.419807	545.530846	27.359957	-469.456820	426.414936	-38.704329	-668.817481	199.027003	-29.528734	-709.690587	109.272998	-85.916938	-618.435121	77.408658	-92.923756	-87.918886	490.810932	-368.858930	-44.209686	419.741776	-304.963421	53.885769	129.459308	-322.313637	115.946158	63.728680	-275.935174	214.542100	112.109091	-269.262014	
52	0.850000	-365.188692	824.969429	-211.372349	-193.855304	823.467968	-25.524838	-137.300271	819.297243	-275.768345	-406.562285	546.364991	27.026299	-446.768075	427.582740	-38.203842	-656.472134	209.203572	-27.193128	-700.348163	120.617371	-81.412554	-611.761961	81.078896	-88.919860	-53.385282	493.647025	-369.526246	-10.677056	420.075434	-307.799514	72.403788	123.787122	-318.476570	129.626137	58.390152	-269.762501	231.391830	97.928626	-263.256170	
